<svg xmlns="http://www.w3.org/2000/svg" viewBox="0 0 512 512" style="enable-background:new 0 0 512 512" xml:space="preserve"><path style="fill:#eb5777" d="M444.542 418.975v72.267c0 11.466-9.21 20.758-20.552 20.758h-319.5c-5.676 0-10.281-4.646-10.281-10.374v-82.651h350.333z"/><path style="fill:#ce3f63" d="M444.542 418.975v38.075a32.781 32.781 0 0 1-20.655 7.283H104.531c-3.719 0-7.222-.896-10.322-2.503v-42.856h350.333z"/><path style="fill:#ce3f63" d="M421.063 418.974v72.265c0 11.468-9.198 20.757-20.554 20.757h23.473c11.356 0 20.554-9.289 20.554-20.757v-72.265h-23.473z"/><path style="fill:#ebeef2" d="M407.291 425.568v49.49c0 5.707-4.625 10.333-10.322 10.333H104.531c-5.697 0-10.322-4.626-10.322-10.333v-49.49h313.082z"/><path style="fill:#d3d8df" d="M407.291 425.568v38.766h-302.76c-3.719 0-7.222-.896-10.322-2.503v-36.262h313.082z"/><path style="fill:#ed7a98" d="M423.884 451.967H104.535c-5.704 0-10.328-4.624-10.328-10.328V10.329c0-5.704 4.624-10.328 10.328-10.328h319.348c11.408 0 20.655 9.248 20.655 20.655v410.656c.001 11.408-9.247 20.655-20.654 20.655z"/><path style="fill:#eb5777" d="M444.536 20.757v410.45c0 11.468-9.198 20.757-20.554 20.757h-23.473c11.356 0 20.554-9.289 20.554-20.757V20.757C421.063 9.299 411.866 0 400.509 0h23.473c11.356 0 20.554 9.299 20.554 20.757z"/><path style="fill:#bfe89e" d="m154.107 143.347 36.655-36.655c3.873-3.873 10.153-3.88 14.033 0l37.196 37.196c3.873 3.873 3.873 10.16 0 14.033l-21.948 21.948c-3.543 3.543-3.915 9.164-.828 13.107 11.893 15.191 25.534 30.628 40.662 45.756s30.565 28.769 45.756 40.662c3.943 3.087 9.564 2.715 13.107-.828l21.948-21.948c3.873-3.873 10.16-3.873 14.033 0l37.196 37.196c3.88 3.88 3.873 10.16 0 14.033l-36.655 36.655c-6.006 6.006-15.191 7.571-22.804 3.775-31.68-15.823-68.581-43.012-103.847-78.278s-62.456-72.167-78.278-103.847c-3.797-7.614-2.233-16.799 3.774-22.805z"/><path style="fill:#84b75b" d="m381.862 317.902-51.229-51.229 10.055-10.055c3.873-3.873 10.16-3.873 14.033 0l37.196 37.196c3.88 3.88 3.873 10.16 0 14.033l-10.055 10.055z"/><path style="fill:#a0d37d" d="M380.459 324.224a7.704 7.704 0 0 1-5.463-2.263l-48.422-48.422a7.727 7.727 0 1 1 10.927-10.928l48.422 48.422a7.727 7.727 0 0 1-5.464 13.191z"/><path style="fill:#84b75b" d="m180.707 116.747 10.055-10.055c3.873-3.873 10.153-3.88 14.033 0l37.196 37.196c3.873 3.873 3.873 10.16 0 14.033l-10.055 10.055-51.229-51.229z"/><path style="fill:#a0d37d" d="M230.533 174.299a7.704 7.704 0 0 1-5.463-2.263l-48.422-48.423a7.727 7.727 0 1 1 10.927-10.928l48.422 48.423a7.727 7.727 0 0 1-5.464 13.191z"/><path style="fill:#bfe89e" d="M301.96 204.323a7.728 7.728 0 0 1-5.423-13.231l8.212-8.09a7.727 7.727 0 1 1 10.845 11.008l-8.212 8.09a7.704 7.704 0 0 1-5.422 2.223zM279.056 188.183a7.726 7.726 0 0 1-7.452-9.784l3.067-11.113a7.725 7.725 0 0 1 9.504-5.392 7.726 7.726 0 0 1 5.392 9.503L286.5 182.51a7.73 7.73 0 0 1-7.444 5.673zM317.748 227.473a7.727 7.727 0 0 1-1.937-15.207l11.157-2.899a7.727 7.727 0 0 1 3.886 14.956l-11.157 2.899a7.751 7.751 0 0 1-1.949.251z"/><path style="fill:#d3d8df" d="M100.107 67.08h-16.88c-8.709 0-15.77-7.06-15.77-15.77 0-8.709 7.06-15.77 15.77-15.77h16.88c8.709 0 15.77 7.06 15.77 15.77-.001 8.71-7.061 15.77-15.77 15.77z"/><g><path style="fill:#d3d8df" d="M100.107 137.129h-16.88c-8.709 0-15.77-7.06-15.77-15.77 0-8.709 7.06-15.77 15.77-15.77h16.88c8.709 0 15.77 7.06 15.77 15.77-.001 8.71-7.061 15.77-15.77 15.77z"/></g><g><path style="fill:#d3d8df" d="M100.107 207.178h-16.88c-8.709 0-15.77-7.06-15.77-15.77 0-8.709 7.06-15.77 15.77-15.77h16.88c8.709 0 15.77 7.06 15.77 15.77-.001 8.71-7.061 15.77-15.77 15.77z"/></g><g><path style="fill:#d3d8df" d="M100.107 277.227h-16.88c-8.709 0-15.77-7.06-15.77-15.77 0-8.709 7.06-15.77 15.77-15.77h16.88c8.709 0 15.77 7.06 15.77 15.77-.001 8.709-7.061 15.77-15.77 15.77z"/></g><g><path style="fill:#d3d8df" d="M100.107 347.275h-16.88c-8.709 0-15.77-7.06-15.77-15.77 0-8.709 7.06-15.77 15.77-15.77h16.88c8.709 0 15.77 7.06 15.77 15.77-.001 8.71-7.061 15.77-15.77 15.77z"/></g><g><path style="fill:#d3d8df" d="M100.107 417.324h-16.88c-8.709 0-15.77-7.06-15.77-15.77 0-8.709 7.06-15.77 15.77-15.77h16.88c8.709 0 15.77 7.06 15.77 15.77-.001 8.71-7.061 15.77-15.77 15.77z"/></g></svg>