<svg xmlns="http://www.w3.org/2000/svg" viewBox="0 0 512 512" style="enable-background:new 0 0 512 512" xml:space="preserve"><path style="fill:#00bcd4" d="M434.605 11.907v386.974H107.761c-16.86-.036-30.363 13.455-30.363 30.124V42.269c0-16.765 13.598-30.363 30.363-30.363h326.844z"/><path style="fill:#fff" d="M321.489 122.614V69.087c0-6.263-5.077-11.339-11.339-11.339h-43.263c-24.426 0-44.226 19.801-44.226 44.226v206.839c0 24.426 19.801 44.226 44.226 44.226h43.263c6.263 0 11.339-5.077 11.339-11.339v-53.525c0-6.263-5.077-11.339-11.339-11.339h-31.526V133.954h31.526c6.262-.001 11.339-5.079 11.339-11.34zM434.605 500.09H107.761c-16.944.036-30.494-13.586-30.363-30.363v-40.722c0-16.67 13.502-30.16 30.363-30.124h326.844c-21.921 30.172-21.921 71.037 0 101.209z"/><path style="fill:#231f20" d="M310.149 45.842h-43.261c-30.952 0-56.133 25.181-56.133 56.134v206.838c0 30.952 25.181 56.134 56.133 56.134h43.261c12.818 0 23.246-10.428 23.246-23.246v-53.525c0-12.819-10.428-23.246-23.246-23.246H290.53V145.862h19.619c12.818 0 23.246-10.428 23.246-23.246V69.087c.001-12.817-10.428-23.245-23.246-23.245zm-.567 76.204h-30.958c-6.576 0-11.907 5.332-11.907 11.907v142.883c0 6.575 5.331 11.907 11.907 11.907h30.958v52.39h-42.695c-17.821 0-32.319-14.499-32.319-32.32V101.975c0-17.821 14.498-32.32 32.319-32.32h42.695v52.391z"/><path style="fill:#231f20" d="m446.484 398.868.026.013V11.907C446.511 5.332 441.18 0 434.604 0H107.759C84.452 0 65.49 18.962 65.49 42.269v427.365c-.088 11.302 4.244 21.931 12.199 29.932 7.975 8.019 18.625 12.431 29.978 12.431H130.89c.03 0 .06.004.089.004.029 0 .057-.004.085-.004h303.541a11.905 11.905 0 0 0 9.633-18.906c-18.95-26.081-18.95-61.13 0-87.211 1.508-2.077 2.249-4.538 2.246-7.012zm-338.75 89.315h-.042c-4.99 0-9.648-1.919-13.117-5.408-3.439-3.458-5.31-8.059-5.272-13.048v-40.722c0-4.868 1.891-9.435 5.324-12.861 3.464-3.455 8.101-5.357 13.09-5.357h7.49c-5.855 25.213-5.855 52.182 0 77.395h-7.473zm306.458 0H139.804c-6.751-24.763-6.751-52.632 0-77.395h274.387a97.645 97.645 0 0 0 .001 77.395zM138.109 386.974c.002-.092.014-.18.014-.273v-32.522c0-6.575-5.331-11.907-11.907-11.907s-11.907 5.332-11.907 11.907v32.522c0 .092.012.181.014.273h-6.631c-6.486 0-12.737 1.443-18.394 4.165l.007-.011V42.269c0-10.177 8.279-18.456 18.456-18.456h6.549v230.994c0 6.575 5.331 11.907 11.907 11.907s11.907-5.332 11.907-11.907V23.814h284.575v363.16h-284.59z"/><path style="fill:#231f20" d="M126.216 291.421c-6.576 0-11.907 5.332-11.907 11.907v4.167c0 6.575 5.331 11.907 11.907 11.907s11.907-5.332 11.907-11.907v-4.167c0-6.575-5.331-11.907-11.907-11.907z"/></svg>